<mxfile host="Electron" modified="2024-06-04T09:34:29.979Z" agent="Mozilla/5.0 (Windows NT 10.0; Win64; x64) AppleWebKit/537.36 (KHTML, like Gecko) draw.io/24.4.13 Chrome/124.0.6367.207 Electron/30.0.6 Safari/537.36" etag="rT8s7iZqt_viHK6ipZKC" version="24.4.13" type="device">
  <diagram name="Page-1" id="hojKvll_BSdD_xnf5zBK">
    <mxGraphModel dx="1235" dy="1900" grid="1" gridSize="10" guides="1" tooltips="1" connect="1" arrows="1" fold="1" page="1" pageScale="1" pageWidth="827" pageHeight="1169" math="0" shadow="0">
      <root>
        <mxCell id="0" />
        <mxCell id="1" parent="0" />
        <mxCell id="1oYp3eJM_BddGtKsW7Qt-3" value="Serveur" style="shape=umlFrame;whiteSpace=wrap;html=1;pointerEvents=0;" vertex="1" parent="1">
          <mxGeometry x="880" y="40" width="720" height="960" as="geometry" />
        </mxCell>
        <mxCell id="1oYp3eJM_BddGtKsW7Qt-4" value="raytracer" style="shape=umlFrame;whiteSpace=wrap;html=1;pointerEvents=0;" vertex="1" parent="1">
          <mxGeometry x="40" y="40" width="760" height="960" as="geometry" />
        </mxCell>
        <mxCell id="1oYp3eJM_BddGtKsW7Qt-6" value="Distributeur" style="html=1;whiteSpace=wrap;" vertex="1" parent="1">
          <mxGeometry x="1241" y="320" width="159" height="80" as="geometry" />
        </mxCell>
        <mxCell id="1oYp3eJM_BddGtKsW7Qt-7" value="lancerServeur" style="html=1;whiteSpace=wrap;" vertex="1" parent="1">
          <mxGeometry x="960" y="320" width="160" height="80" as="geometry" />
        </mxCell>
        <mxCell id="1oYp3eJM_BddGtKsW7Qt-8" value="ServiceDistributeur" style="html=1;whiteSpace=wrap;" vertex="1" parent="1">
          <mxGeometry x="1241" y="80" width="159" height="80" as="geometry" />
        </mxCell>
        <mxCell id="1oYp3eJM_BddGtKsW7Qt-9" value="&amp;lt;&amp;lt;implements&amp;gt;&amp;gt;" style="html=1;verticalAlign=bottom;endArrow=block;dashed=1;endSize=8;curved=0;rounded=0;exitX=0.5;exitY=0;exitDx=0;exitDy=0;entryX=0.5;entryY=1;entryDx=0;entryDy=0;endFill=0;" edge="1" parent="1" source="1oYp3eJM_BddGtKsW7Qt-6" target="1oYp3eJM_BddGtKsW7Qt-8">
          <mxGeometry x="0.375" y="-50" relative="1" as="geometry">
            <mxPoint x="1260" y="250" as="sourcePoint" />
            <mxPoint x="1180" y="250" as="targetPoint" />
            <mxPoint as="offset" />
          </mxGeometry>
        </mxCell>
        <mxCell id="1oYp3eJM_BddGtKsW7Qt-11" value="distributeur" style="html=1;verticalAlign=bottom;endArrow=open;curved=0;rounded=0;exitX=1;exitY=0.5;exitDx=0;exitDy=0;entryX=0;entryY=0.5;entryDx=0;entryDy=0;endFill=0;" edge="1" parent="1" source="1oYp3eJM_BddGtKsW7Qt-7" target="1oYp3eJM_BddGtKsW7Qt-6">
          <mxGeometry width="80" relative="1" as="geometry">
            <mxPoint x="1180" y="250" as="sourcePoint" />
            <mxPoint x="1260" y="250" as="targetPoint" />
          </mxGeometry>
        </mxCell>
        <mxCell id="1oYp3eJM_BddGtKsW7Qt-12" value="&lt;font face=&quot;Verdana&quot;&gt;I&lt;/font&gt;" style="ellipse;whiteSpace=wrap;html=1;aspect=fixed;" vertex="1" parent="1">
          <mxGeometry x="1376" y="84" width="20" height="20" as="geometry" />
        </mxCell>
        <mxCell id="1oYp3eJM_BddGtKsW7Qt-13" value="Remote" style="rounded=0;whiteSpace=wrap;html=1;" vertex="1" parent="1">
          <mxGeometry x="850" y="-200" width="159" height="80" as="geometry" />
        </mxCell>
        <mxCell id="1oYp3eJM_BddGtKsW7Qt-14" value="&amp;lt;&amp;lt;extends&amp;gt;&amp;gt;" style="endArrow=block;html=1;rounded=0;entryX=1;entryY=1;entryDx=0;entryDy=0;exitX=0.5;exitY=0;exitDx=0;exitDy=0;endFill=0;" edge="1" parent="1" source="1oYp3eJM_BddGtKsW7Qt-8" target="1oYp3eJM_BddGtKsW7Qt-13">
          <mxGeometry x="0.375" y="-40" width="50" height="50" relative="1" as="geometry">
            <mxPoint x="1180" y="180" as="sourcePoint" />
            <mxPoint x="1230" y="130" as="targetPoint" />
            <mxPoint as="offset" />
          </mxGeometry>
        </mxCell>
        <mxCell id="1oYp3eJM_BddGtKsW7Qt-15" value="ServiceCalcul" style="html=1;whiteSpace=wrap;" vertex="1" parent="1">
          <mxGeometry x="520" y="80" width="159" height="80" as="geometry" />
        </mxCell>
        <mxCell id="1oYp3eJM_BddGtKsW7Qt-16" value="&amp;lt;&amp;lt;extends&amp;gt;&amp;gt;" style="endArrow=block;html=1;rounded=0;entryX=0;entryY=1;entryDx=0;entryDy=0;exitX=0.5;exitY=0;exitDx=0;exitDy=0;endFill=0;" edge="1" parent="1" source="1oYp3eJM_BddGtKsW7Qt-15" target="1oYp3eJM_BddGtKsW7Qt-13">
          <mxGeometry x="0.375" y="-40" width="50" height="50" relative="1" as="geometry">
            <mxPoint x="1330" y="90" as="sourcePoint" />
            <mxPoint x="1330" y="-70" as="targetPoint" />
            <mxPoint as="offset" />
          </mxGeometry>
        </mxCell>
        <mxCell id="1oYp3eJM_BddGtKsW7Qt-17" value="Scene" style="html=1;whiteSpace=wrap;" vertex="1" parent="1">
          <mxGeometry x="520" y="320" width="159" height="80" as="geometry" />
        </mxCell>
        <mxCell id="1oYp3eJM_BddGtKsW7Qt-18" value="&amp;lt;&amp;lt;implements&amp;gt;&amp;gt;" style="html=1;verticalAlign=bottom;endArrow=block;dashed=1;endSize=8;curved=0;rounded=0;exitX=0.5;exitY=0;exitDx=0;exitDy=0;entryX=0.5;entryY=1;entryDx=0;entryDy=0;endFill=0;" edge="1" parent="1" source="1oYp3eJM_BddGtKsW7Qt-17" target="1oYp3eJM_BddGtKsW7Qt-15">
          <mxGeometry x="0.375" y="-50" relative="1" as="geometry">
            <mxPoint x="720" y="310" as="sourcePoint" />
            <mxPoint x="720" y="150" as="targetPoint" />
            <mxPoint as="offset" />
          </mxGeometry>
        </mxCell>
      </root>
    </mxGraphModel>
  </diagram>
</mxfile>
